<svg width="60" height="60" viewBox="0 0 60 60" fill="none" xmlns="http://www.w3.org/2000/svg">
<rect width="60" height="60" rx="10" fill="#E14242"/>
<path d="M28.2856 32.5715L28.2856 30.0001" stroke="white" stroke-width="2" stroke-linecap="round"/>
<path d="M31.7144 32.5715L31.7144 30.0001" stroke="white" stroke-width="2" stroke-linecap="round"/>
<path d="M22.2856 25.7144H37.7142V25.7144C37.183 25.7144 36.9174 25.7144 36.6977 25.7645C35.9488 25.9355 35.3639 26.5203 35.1929 27.2693C35.1428 27.489 35.1428 27.7546 35.1428 28.2858V32.8572C35.1428 34.7428 35.1428 35.6856 34.557 36.2714C33.9712 36.8572 33.0284 36.8572 31.1428 36.8572H28.8571C26.9715 36.8572 26.0286 36.8572 25.4429 36.2714C24.8571 35.6856 24.8571 34.7428 24.8571 32.8572V28.2858C24.8571 27.7546 24.8571 27.489 24.8069 27.2693C24.636 26.5203 24.0511 25.9355 23.3021 25.7645C23.0824 25.7144 22.8168 25.7144 22.2856 25.7144V25.7144Z" stroke="white" stroke-width="2" stroke-linecap="round"/>
<path d="M28.3442 22.6035C28.4419 22.5124 28.6571 22.4319 28.9565 22.3745C29.2559 22.317 29.6227 22.2859 30.0001 22.2859C30.3774 22.2859 30.7443 22.317 31.0437 22.3745C31.3431 22.4319 31.5583 22.5124 31.6559 22.6035" stroke="white" stroke-width="2" stroke-linecap="round"/>
</svg>
