<svg width="45" height="45" viewBox="0 0 45 45" fill="none" xmlns="http://www.w3.org/2000/svg">
<rect width="45" height="45" rx="7" fill="#4269E1"/>
<path fill-rule="evenodd" clip-rule="evenodd" d="M28.204 20.7959L30 18.9999C30.5453 18.4547 30.8179 18.1821 30.9636 17.888C31.2409 17.3284 31.2409 16.6715 30.9636 16.1119C30.8179 15.8178 30.5453 15.5452 30 14.9999C29.4548 14.4547 29.1821 14.1821 28.888 14.0363C28.3285 13.759 27.6715 13.759 27.112 14.0363C26.8179 14.1821 26.5453 14.4547 26 14.9999L24.1814 16.8186C25.1452 18.4692 26.5314 19.8448 28.204 20.7959ZM22.7269 18.2731L15.8564 25.1436C15.4313 25.5686 15.2188 25.7812 15.0791 26.0422C14.9393 26.3033 14.8804 26.5981 14.7625 27.1875L14.1471 30.2645C14.0806 30.5971 14.0473 30.7634 14.1419 30.858C14.2365 30.9526 14.4028 30.9194 14.7355 30.8529L17.8124 30.2375C18.4019 30.1196 18.6966 30.0606 18.9577 29.9209C19.2188 29.7812 19.4313 29.5686 19.8564 29.1436L26.7458 22.2542C25.1241 21.2385 23.7524 19.8762 22.7269 18.2731Z" fill="white"/>
</svg>
