<svg width="48" height="47" viewBox="0 0 48 47" fill="none" xmlns="http://www.w3.org/2000/svg">
<path d="M0 10.556C0 5.03318 4.47715 0.55603 10 0.55603H38C43.5229 0.55603 48 5.03318 48 10.556V36.4592C48 41.9821 43.5228 46.4592 38 46.4592H10C4.47715 46.4592 0 41.9821 0 36.4592V10.556Z" fill="#4269E1"/>
<path fill-rule="evenodd" clip-rule="evenodd" d="M24 25.3329C25.1897 25.3329 26 24.4325 26 23.5076C26 22.5828 25.1897 21.6824 24 21.6824C22.8103 21.6824 22 22.5828 22 23.5076C22 24.4325 22.8103 25.3329 24 25.3329ZM24 27.3329C26.2091 27.3329 28 25.6203 28 23.5076C28 21.395 26.2091 19.6824 24 19.6824C21.7909 19.6824 20 21.395 20 23.5076C20 25.6203 21.7909 27.3329 24 27.3329Z" fill="white"/>
<path fill-rule="evenodd" clip-rule="evenodd" d="M19.7016 20.2938C18.3966 21.1806 17.3249 22.273 16.632 23.0691C16.5245 23.1926 16.4441 23.2851 16.3775 23.3666C16.3252 23.4306 16.2917 23.4754 16.2697 23.5077C16.2917 23.5399 16.3252 23.5848 16.3775 23.6487C16.4441 23.7302 16.5245 23.8228 16.632 23.9463C17.3249 24.7424 18.3966 25.8347 19.7016 26.7215C21.0128 27.6125 22.4849 28.2456 23.9999 28.2456C25.515 28.2456 26.9871 27.6125 28.2983 26.7215C29.6033 25.8347 30.675 24.7424 31.3679 23.9463C31.4754 23.8228 31.5558 23.7302 31.6224 23.6487C31.6747 23.5848 31.7082 23.5399 31.7301 23.5077C31.7082 23.4754 31.6747 23.4306 31.6224 23.3666C31.5558 23.2851 31.4754 23.1926 31.3679 23.0691C30.675 22.273 29.6033 21.1806 28.2983 20.2938C26.9871 19.4029 25.515 18.7698 23.9999 18.7698C22.4849 18.7698 21.0128 19.4029 19.7016 20.2938ZM18.5776 18.6396C20.07 17.6255 21.9344 16.7698 23.9999 16.7698C26.0655 16.7698 27.9299 17.6255 29.4223 18.6396C30.9209 19.6579 32.1201 20.8869 32.8765 21.756C32.9019 21.7852 32.9283 21.8151 32.9556 21.846C33.2925 22.2278 33.7497 22.7457 33.7497 23.5077C33.7497 24.2696 33.2925 24.7876 32.9556 25.1693C32.9283 25.2002 32.9019 25.2302 32.8765 25.2593C32.1201 26.1284 30.9209 27.3575 29.4223 28.3758C27.9299 29.3899 26.0655 30.2456 23.9999 30.2456C21.9344 30.2456 20.07 29.3899 18.5776 28.3758C17.079 27.3575 15.8798 26.1284 15.1234 25.2593C15.098 25.2302 15.0716 25.2002 15.0443 25.1693C14.7074 24.7876 14.2502 24.2696 14.2502 23.5077C14.2502 22.7457 14.7074 22.2278 15.0443 21.846C15.0716 21.8151 15.098 21.7852 15.1234 21.756C15.8798 20.8869 17.079 19.6579 18.5776 18.6396Z" fill="white"/>
</svg>
