<svg width="80" height="77" viewBox="0 0 80 77" fill="none" xmlns="http://www.w3.org/2000/svg">
<path d="M0 10.2939C0 4.77109 4.47715 0.293945 10 0.293945H70C75.5229 0.293945 80 4.7711 80 10.2939V66.7993C80 72.3221 75.5229 76.7993 70 76.7993H10C4.47715 76.7993 0 72.3221 0 66.7993V10.2939Z" fill="#4269E1"/>
<path fill-rule="evenodd" clip-rule="evenodd" d="M43.9512 28.8737C43.176 28.7136 42.2184 28.7084 40.0001 28.7084H39.505C37.7582 28.7084 37.0037 28.7116 36.3889 28.8111C32.987 29.3616 30.3199 32.0286 29.7695 35.4305C29.67 36.0453 29.6668 36.7998 29.6668 38.5466C29.6668 40.2935 29.67 41.0479 29.7695 41.6627C30.3199 45.0646 32.987 47.7317 36.3889 48.2822C37.0037 48.3817 37.7582 48.3849 39.505 48.3849H47.3922C48.3338 48.3849 48.9424 48.3829 49.3922 48.3241C49.8148 48.2689 49.9495 48.1793 50.024 48.1081C50.029 48.1034 50.0339 48.0986 50.0388 48.0937C50.0448 48.0877 50.0508 48.0816 50.0567 48.0755C50.1278 48.0009 50.2174 47.8663 50.2727 47.4436C50.3314 46.9939 50.3334 46.3853 50.3334 45.4437V39.0417C50.3334 36.8234 50.3282 35.8659 50.1681 35.0906C49.5224 31.9632 47.0786 29.5194 43.9512 28.8737ZM40.149 26.7084C42.1761 26.7083 43.3541 26.7082 44.3556 26.915C48.2649 27.7222 51.3196 30.7769 52.1268 34.6862C52.3336 35.6877 52.3335 36.8657 52.3334 38.8928L52.3334 45.5075C52.3335 46.3672 52.3335 47.108 52.2558 47.7027C52.1727 48.3392 51.9855 48.9515 51.5032 49.4567C51.4713 49.4901 51.4386 49.5227 51.4052 49.5546C50.9 50.037 50.2877 50.2241 49.6513 50.3073C49.0565 50.385 48.3157 50.3849 47.456 50.3849H39.3877C37.7912 50.385 36.8637 50.385 36.0694 50.2565C31.8171 49.5684 28.4832 46.2346 27.7951 41.9822C27.6666 41.188 27.6667 40.2604 27.6668 38.6639V38.4293C27.6667 36.8328 27.6666 35.9053 27.7951 35.1111C28.4832 30.8587 31.8171 27.5248 36.0694 26.8368C36.8637 26.7083 37.7912 26.7083 39.3877 26.7084L40.0001 26.7084C40.0502 26.7084 40.0999 26.7084 40.149 26.7084Z" fill="white"/>
<path fill-rule="evenodd" clip-rule="evenodd" d="M34.75 37.1919C34.75 36.6396 35.1977 36.1919 35.75 36.1919L44.25 36.1919C44.8023 36.1919 45.25 36.6396 45.25 37.1919C45.25 37.7442 44.8023 38.1919 44.25 38.1919L35.75 38.1919C35.1977 38.1919 34.75 37.7442 34.75 37.1919Z" fill="white"/>
<path fill-rule="evenodd" clip-rule="evenodd" d="M39 42.6111C39 42.0588 39.4477 41.6111 40 41.6111H44.25C44.8023 41.6111 45.25 42.0588 45.25 42.6111C45.25 43.1634 44.8023 43.6111 44.25 43.6111H40C39.4477 43.6111 39 43.1634 39 42.6111Z" fill="white"/>
</svg>
