<svg width="80" height="77" viewBox="0 0 80 77" fill="none" xmlns="http://www.w3.org/2000/svg">
<path d="M0 10.2939C0 4.77109 4.47715 0.293945 10 0.293945H70C75.5229 0.293945 80 4.7711 80 10.2939V66.7993C80 72.3221 75.5229 76.7993 70 76.7993H10C4.47715 76.7993 0 72.3221 0 66.7993V10.2939Z" fill="#4269E1"/>
<path fill-rule="evenodd" clip-rule="evenodd" d="M28.1615 22.4203H41.3385C41.8657 22.4203 42.3205 22.4203 42.695 22.4509C43.0904 22.4832 43.4836 22.5545 43.862 22.7473C44.4265 23.0349 44.8854 23.4938 45.173 24.0583C45.3658 24.4367 45.4371 24.8299 45.4694 25.2253C45.5 25.5998 45.5 26.0546 45.5 26.5817V29.4203H46.2413C47.0463 29.4203 47.7106 29.4203 48.2518 29.4645C48.8139 29.5104 49.3306 29.609 49.816 29.8563C50.5686 30.2398 51.1805 30.8517 51.564 31.6043C51.8113 32.0897 51.9099 32.6064 51.9558 33.1685C52 33.7097 52 34.374 52 35.179V48.1703C52 50.5175 50.0972 52.4203 47.75 52.4203H28.1614C27.6343 52.4203 27.1795 52.4203 26.805 52.3897C26.4096 52.3574 26.0164 52.2861 25.638 52.0933C25.0735 51.8057 24.6146 51.3467 24.327 50.7823C24.1342 50.4039 24.0629 50.0107 24.0306 49.6153C24 49.2407 24 48.786 24 48.2588V26.5817C24 26.0546 24 25.5998 24.0306 25.2253C24.0629 24.8299 24.1342 24.4367 24.327 24.0583C24.6146 23.4938 25.0735 23.0349 25.638 22.7473C26.0164 22.5545 26.4096 22.4832 26.805 22.4509C27.1795 22.4203 27.6343 22.4203 28.1615 22.4203ZM44.1438 50.4203H28.2C27.6234 50.4203 27.2512 50.4195 26.9678 50.3964C26.6962 50.3742 26.5955 50.3365 26.546 50.3113C26.3578 50.2154 26.2049 50.0624 26.109 49.8743C26.0838 49.8248 26.0461 49.7241 26.0239 49.4525C26.0008 49.1691 26 48.7968 26 48.2203V26.6203C26 26.0437 26.0008 25.6715 26.0239 25.3881C26.0461 25.1165 26.0838 25.0157 26.109 24.9663C26.2049 24.7781 26.3578 24.6252 26.546 24.5293C26.5955 24.5041 26.6962 24.4664 26.9678 24.4442C27.2512 24.4211 27.6234 24.4203 28.2 24.4203H41.3C41.8766 24.4203 42.2488 24.4211 42.5322 24.4442C42.8038 24.4664 42.9045 24.5041 42.954 24.5293C43.1422 24.6252 43.2951 24.7781 43.391 24.9663C43.4162 25.0157 43.4539 25.1165 43.4761 25.3881C43.4992 25.6715 43.5 26.0437 43.5 26.6203V48.1703C43.5 48.9966 43.7358 49.7678 44.1438 50.4203ZM47.75 50.4203C48.9926 50.4203 50 49.4129 50 48.1703V35.2203C50 34.3637 49.9992 33.7814 49.9625 33.3313C49.9266 32.8929 49.8617 32.6687 49.782 32.5123C49.5903 32.136 49.2843 31.83 48.908 31.6383C48.7516 31.5586 48.5274 31.4937 48.089 31.4578C47.6389 31.4211 47.0566 31.4203 46.2 31.4203H45.5V48.1703C45.5 49.4129 46.5074 50.4203 47.75 50.4203Z" fill="white"/>
<path fill-rule="evenodd" clip-rule="evenodd" d="M28 27.4203C28 26.868 28.4477 26.4203 29 26.4203H33C33.5523 26.4203 34 26.868 34 27.4203V31.4203C34 31.9726 33.5523 32.4203 33 32.4203H29C28.4477 32.4203 28 31.9726 28 31.4203V27.4203ZM30 28.4203V30.4203H32V28.4203H30Z" fill="white"/>
<path fill-rule="evenodd" clip-rule="evenodd" d="M28 35.4203C28 34.868 28.4477 34.4203 29 34.4203H33C33.5523 34.4203 34 34.868 34 35.4203C34 35.9726 33.5523 36.4203 33 36.4203H29C28.4477 36.4203 28 35.9726 28 35.4203Z" fill="white"/>
</svg>
