<svg width="80" height="77" viewBox="0 0 80 77" fill="none" xmlns="http://www.w3.org/2000/svg">
<path d="M0 10.2939C0 4.77109 4.47715 0.293945 10 0.293945H70C75.5229 0.293945 80 4.7711 80 10.2939V66.7993C80 72.3221 75.5229 76.7993 70 76.7993H10C4.47715 76.7993 0 72.3221 0 66.7993V10.2939Z" fill="#4269E1"/>
<path fill-rule="evenodd" clip-rule="evenodd" d="M45.7904 33.4823C47.8392 33.4823 49.5 35.1431 49.5 37.1919C49.5 39.2406 47.8392 40.9014 45.7904 40.9014L45.5429 40.9014C43.4942 40.9014 41.8333 39.2406 41.8333 37.1919C41.8333 35.1431 43.4942 33.4823 45.5429 33.4823L45.7904 33.4823ZM47.5 37.1919C47.5 36.2477 46.7346 35.4823 45.7904 35.4823L45.5429 35.4823C44.5987 35.4823 43.8333 36.2477 43.8333 37.1919C43.8333 38.136 44.5987 38.9014 45.5429 38.9014L45.7904 38.9014C46.7346 38.9014 47.5 38.136 47.5 37.1919Z" fill="white"/>
<path fill-rule="evenodd" clip-rule="evenodd" d="M45.7904 44.3206C47.8392 44.3206 49.5 45.9814 49.5 48.0301C49.5 50.0789 47.8392 51.7397 45.7904 51.7397L45.5429 51.7397C43.4942 51.7397 41.8333 50.0789 41.8333 48.0301C41.8333 45.9814 43.4942 44.3206 45.5429 44.3206L45.7904 44.3206ZM47.5 48.0301C47.5 47.086 46.7346 46.3206 45.7904 46.3206L45.5429 46.3206C44.5987 46.3206 43.8333 47.086 43.8333 48.0301C43.8333 48.9743 44.5987 49.7397 45.5429 49.7397L45.7904 49.7397C46.7346 49.7397 47.5 48.9743 47.5 48.0301Z" fill="white"/>
<path fill-rule="evenodd" clip-rule="evenodd" d="M29.9596 32.7728C27.9108 32.7728 26.25 31.112 26.25 29.0633C26.25 27.0145 27.9108 25.3537 29.9596 25.3537L30.2071 25.3537C32.2558 25.3537 33.9167 27.0145 33.9167 29.0633C33.9167 31.112 32.2558 32.7728 30.2071 32.7728L29.9596 32.7728ZM28.25 29.0633C28.25 30.0074 29.0154 30.7728 29.9596 30.7728L30.2071 30.7728C31.1513 30.7728 31.9167 30.0074 31.9167 29.0633C31.9167 28.1191 31.1513 27.3537 30.2071 27.3537L29.9596 27.3537C29.0154 27.3537 28.25 28.1191 28.25 29.0633Z" fill="white"/>
<path fill-rule="evenodd" clip-rule="evenodd" d="M29.0833 33.1276H31.0833V44.0302C31.0833 45.0012 31.0854 45.6289 31.1476 46.0915C31.2059 46.5252 31.3 46.6611 31.3761 46.7373C31.4523 46.8134 31.5882 46.9075 32.022 46.9659C32.4845 47.028 33.1122 47.0302 34.0833 47.0302H42.8333V49.0302L34.0174 49.0302C33.1309 49.0302 32.3671 49.0303 31.7555 48.948C31.0999 48.8599 30.4716 48.6611 29.9619 48.1515C29.4523 47.6418 29.2535 47.0135 29.1654 46.3579C29.0832 45.7463 29.0832 44.9825 29.0833 44.096L29.0833 33.1276Z" fill="white"/>
<path fill-rule="evenodd" clip-rule="evenodd" d="M29.0833 33.192V31.7728H31.0833V33.192C31.0833 34.163 31.0854 34.7907 31.1476 35.2532C31.2059 35.687 31.3 35.8229 31.3761 35.8991C31.4523 35.9752 31.5882 36.0693 32.022 36.1276C32.4845 36.1898 33.1122 36.192 34.0833 36.192H42.8333V38.192H34.0833C34.0612 38.192 34.0393 38.192 34.0174 38.192C33.1309 38.192 32.3671 38.192 31.7555 38.1098C31.0999 38.0217 30.4716 37.8229 29.9619 37.3133C29.4523 36.8036 29.2535 36.1753 29.1654 35.5197C29.0832 34.9081 29.0832 34.1443 29.0833 33.2578C29.0833 33.2359 29.0833 33.214 29.0833 33.192Z" fill="white"/>
</svg>
