<svg width="80" height="77" viewBox="0 0 80 77" fill="none" xmlns="http://www.w3.org/2000/svg">
<path d="M0 10.2939C0 4.77109 4.47715 0.293945 10 0.293945H70C75.5229 0.293945 80 4.7711 80 10.2939V66.7993C80 72.3221 75.5229 76.7993 70 76.7993H10C4.47715 76.7993 0 72.3221 0 66.7993V10.2939Z" fill="#4269E1"/>
<path fill-rule="evenodd" clip-rule="evenodd" d="M25.25 50.7397C25.25 49.6352 26.1454 48.7397 27.25 48.7397H52.75C53.8546 48.7397 54.75 49.6352 54.75 50.7397C54.75 51.8443 53.8546 52.7397 52.75 52.7397H27.25C26.1454 52.7397 25.25 51.8443 25.25 50.7397Z" fill="white"/>
<path fill-rule="evenodd" clip-rule="evenodd" d="M28.6667 39.2562C29.7713 39.2562 30.6667 40.1517 30.6667 41.2562V43.9658C30.6667 45.0704 29.7713 45.9658 28.6667 45.9658C27.5622 45.9658 26.6667 45.0704 26.6667 43.9658V41.2562C26.6667 40.1517 27.5622 39.2562 28.6667 39.2562Z" fill="white"/>
<path fill-rule="evenodd" clip-rule="evenodd" d="M40 32.4823C41.1046 32.4823 42 33.3777 42 34.4823V38.5466C42 39.6512 41.1046 40.5466 40 40.5466C38.8954 40.5466 38 39.6512 38 38.5466V34.4823C38 33.3777 38.8954 32.4823 40 32.4823Z" fill="white"/>
<path fill-rule="evenodd" clip-rule="evenodd" d="M34.3333 33.8372C35.4378 33.8372 36.3333 34.7326 36.3333 35.8372V43.9658C36.3333 45.0704 35.4378 45.9658 34.3333 45.9658C33.2287 45.9658 32.3333 45.0704 32.3333 43.9658V35.8372C32.3333 34.7326 33.2287 33.8372 34.3333 33.8372Z" fill="white"/>
<path fill-rule="evenodd" clip-rule="evenodd" d="M45.6667 35.1919C46.7713 35.1919 47.6667 36.0873 47.6667 37.1919V39.9015C47.6667 41.006 46.7713 41.9015 45.6667 41.9015C44.5622 41.9015 43.6667 41.006 43.6667 39.9015V37.1919C43.6667 36.0873 44.5622 35.1919 45.6667 35.1919Z" fill="white"/>
<path fill-rule="evenodd" clip-rule="evenodd" d="M51.3333 27.0632C52.4378 27.0632 53.3333 27.9587 53.3333 29.0632V42.611C53.3333 43.7156 52.4378 44.611 51.3333 44.611C50.2287 44.611 49.3333 43.7156 49.3333 42.611V29.0632C49.3333 27.9587 50.2287 27.0632 51.3333 27.0632Z" fill="white"/>
</svg>
