<svg width="80" height="77" viewBox="0 0 80 77" fill="none" xmlns="http://www.w3.org/2000/svg">
<path d="M0 10.2939C0 4.77109 4.47715 0.293945 10 0.293945H70C75.5229 0.293945 80 4.7711 80 10.2939V66.7993C80 72.3221 75.5229 76.7993 70 76.7993H10C4.47715 76.7993 0 72.3221 0 66.7993V10.2939Z" fill="#4269E1"/>
<path fill-rule="evenodd" clip-rule="evenodd" d="M39.9999 27.8536C37.6349 27.8536 35.8333 29.6707 35.8333 31.7728C35.8333 33.8748 37.6349 35.6919 39.9999 35.6919C42.3649 35.6919 44.1666 33.8748 44.1666 31.7728C44.1666 29.6707 42.3649 27.8536 39.9999 27.8536ZM32.8333 31.7728C32.8333 27.889 36.1057 24.8536 39.9999 24.8536C43.8941 24.8536 47.1666 27.889 47.1666 31.7728C47.1666 35.6565 43.8941 38.6919 39.9999 38.6919C36.1057 38.6919 32.8333 35.6565 32.8333 31.7728Z" fill="white"/>
<path fill-rule="evenodd" clip-rule="evenodd" d="M29.6466 44.9109C30.8087 41.4869 34.1714 39.7562 37.4557 39.7562H42.5441C45.8285 39.7562 49.1911 41.4869 50.3533 44.9109C50.8221 46.2922 51.2384 47.9229 51.3719 49.6232C51.4896 51.1222 50.2651 52.2397 48.9166 52.2397H31.0833C29.7347 52.2397 28.5102 51.1222 28.628 49.6232C28.7615 47.9229 29.1778 46.2922 29.6466 44.9109ZM37.4557 42.7562C35.1095 42.7562 33.1349 43.9674 32.4874 45.8751C32.1334 46.918 31.8317 48.0702 31.6827 49.2397H48.3172C48.1682 48.0702 47.8664 46.918 47.5125 45.8751C46.8649 43.9674 44.8904 42.7562 42.5441 42.7562H37.4557Z" fill="white"/>
</svg>
