<svg width="80" height="77" viewBox="0 0 80 77" fill="none" xmlns="http://www.w3.org/2000/svg">
<path d="M0 10.2939C0 4.77109 4.47715 0.293945 10 0.293945H70C75.5229 0.293945 80 4.7711 80 10.2939V66.7993C80 72.3221 75.5229 76.7993 70 76.7993H10C4.47715 76.7993 0 72.3221 0 66.7993V10.2939Z" fill="#4269E1"/>
<path fill-rule="evenodd" clip-rule="evenodd" d="M34.75 39.9015C34.75 39.3492 35.1977 38.9015 35.75 38.9015L44.25 38.9015C44.8023 38.9015 45.25 39.3492 45.25 39.9015C45.25 40.4538 44.8023 40.9015 44.25 40.9015L35.75 40.9015C35.1977 40.9015 34.75 40.4538 34.75 39.9015Z" fill="white"/>
<path fill-rule="evenodd" clip-rule="evenodd" d="M34.75 34.4823C34.75 33.93 35.1977 33.4823 35.75 33.4823L41.4167 33.4823C41.969 33.4823 42.4167 33.93 42.4167 34.4823C42.4167 35.0346 41.969 35.4823 41.4167 35.4823L35.75 35.4823C35.1977 35.4823 34.75 35.0346 34.75 34.4823Z" fill="white"/>
<path fill-rule="evenodd" clip-rule="evenodd" d="M34.75 45.3206C34.75 44.7683 35.1977 44.3206 35.75 44.3206L41.4167 44.3206C41.969 44.3206 42.4167 44.7683 42.4167 45.3206C42.4167 45.8728 41.969 46.3206 41.4167 46.3206L35.75 46.3206C35.1977 46.3206 34.75 45.8728 34.75 45.3206Z" fill="white"/>
<path fill-rule="evenodd" clip-rule="evenodd" d="M36.0127 25.3536L38.5833 25.3536V27.3536H36.0833C34.6408 27.3536 33.6595 27.3558 32.9247 27.4546C32.2186 27.5495 31.8916 27.7169 31.669 27.9394C31.4465 28.162 31.2791 28.489 31.1842 29.1951C31.0854 29.9299 31.0833 30.9112 31.0833 32.3536V44.7397C31.0833 46.1822 31.0854 47.1635 31.1842 47.8983C31.2791 48.6043 31.4465 48.9314 31.669 49.1539C31.8916 49.3765 32.2186 49.5439 32.9247 49.6388C33.6595 49.7376 34.6408 49.7397 36.0833 49.7397H43.9166C45.3591 49.7397 46.3403 49.7376 47.0752 49.6388C47.7812 49.5439 48.1082 49.3765 48.3308 49.1539C48.5534 48.9314 48.7207 48.6043 48.8157 47.8983C48.9145 47.1635 48.9166 46.1822 48.9166 44.7397V39.9015H50.9166V44.8103C50.9166 46.1644 50.9167 47.281 50.7978 48.1648C50.6731 49.0926 50.4011 49.912 49.745 50.5681C49.0889 51.2242 48.2695 51.4962 47.3417 51.621C46.4579 51.7398 45.3413 51.7397 43.9871 51.7397H36.0127C34.6586 51.7397 33.542 51.7398 32.6582 51.621C31.7304 51.4962 30.9109 51.2242 30.2548 50.5681C29.5987 49.912 29.3268 49.0926 29.202 48.1648C29.0832 47.281 29.0832 46.1644 29.0833 44.8103V32.2831C29.0832 30.929 29.0832 29.8123 29.202 28.9286C29.3268 28.0007 29.5987 27.1813 30.2548 26.5252C30.9109 25.8691 31.7304 25.5971 32.6582 25.4724C33.5419 25.3536 34.6586 25.3536 36.0127 25.3536Z" fill="white"/>
<path fill-rule="evenodd" clip-rule="evenodd" d="M48.5 25.3536C49.0523 25.3536 49.5 25.8014 49.5 26.3536L49.5 34.4823C49.5 35.0346 49.0523 35.4823 48.5 35.4823C47.9477 35.4823 47.5 35.0346 47.5 34.4823L47.5 26.3536C47.5 25.8014 47.9477 25.3536 48.5 25.3536Z" fill="white"/>
<path fill-rule="evenodd" clip-rule="evenodd" d="M53.75 30.418C53.75 30.9703 53.3023 31.418 52.75 31.418L44.25 31.418C43.6977 31.418 43.25 30.9703 43.25 30.418C43.25 29.8657 43.6977 29.418 44.25 29.418L52.75 29.418C53.3023 29.418 53.75 29.8657 53.75 30.418Z" fill="white"/>
</svg>
