<svg width="80" height="77" viewBox="0 0 80 77" fill="none" xmlns="http://www.w3.org/2000/svg">
<path d="M0 10.2939C0 4.77109 4.47715 0.293945 10 0.293945H70C75.5229 0.293945 80 4.7711 80 10.2939V66.7993C80 72.3221 75.5229 76.7993 70 76.7993H10C4.47715 76.7993 0 72.3221 0 66.7993V10.2939Z" fill="#4269E1"/>
<path fill-rule="evenodd" clip-rule="evenodd" d="M38.9178 24.9552C38.9347 24.9552 38.9515 24.9552 38.9684 24.9552H41.0315C41.0484 24.9552 41.0652 24.9552 41.0821 24.9552C41.4663 24.9551 41.8438 24.9551 42.1584 24.9955C42.5151 25.0414 42.9191 25.1523 43.271 25.4693C43.6229 25.7863 43.7752 26.1767 43.858 26.5266C43.9309 26.8353 43.9701 27.2107 44.01 27.5929L44.0422 27.9012C44.1288 28.7293 44.1844 29.2357 44.2709 29.5727C44.2725 29.5789 44.2741 29.5849 44.2757 29.5907C44.281 29.5878 44.2864 29.5847 44.2919 29.5816C44.5944 29.4097 44.9973 29.0978 45.653 28.5847L46.0727 28.2563C46.3641 28.0283 46.6514 27.8034 46.9155 27.6457C47.2154 27.4665 47.589 27.3081 48.0473 27.3308C48.5056 27.3535 48.8617 27.5482 49.1424 27.7561C49.3896 27.9392 49.6533 28.1915 49.9207 28.4473L51.3821 29.8449C51.6731 30.123 51.9575 30.3949 52.1637 30.6514C52.3969 30.9416 52.6187 31.3165 52.6433 31.8081C52.668 32.3014 52.4826 32.698 52.2791 33.0099C52.0985 33.2868 51.8411 33.5876 51.5768 33.8964L51.5427 33.9362C50.9669 34.6092 50.6111 35.0291 50.4109 35.3465C50.4062 35.354 50.4016 35.3613 50.3973 35.3684C50.4037 35.3701 50.4103 35.3717 50.4171 35.3734C50.7768 35.4621 51.3177 35.5165 52.1917 35.6L52.5029 35.6298C52.8886 35.6666 53.2672 35.7027 53.5786 35.7736C53.9315 35.8539 54.3258 36.0042 54.6466 36.3572C54.9674 36.7101 55.0795 37.117 55.1259 37.4759C55.1668 37.7926 55.1667 38.1729 55.1666 38.5604V40.4456C55.1667 40.8332 55.1668 41.2135 55.1259 41.5302C55.0795 41.8891 54.9674 42.2959 54.6466 42.6489C54.3258 43.0018 53.9315 43.1522 53.5786 43.2325C53.2672 43.3033 52.8886 43.3395 52.5028 43.3763L52.1922 43.406C51.3182 43.4895 50.7774 43.5439 50.4177 43.6326C50.4109 43.6343 50.4042 43.636 50.3978 43.6376C50.4021 43.6447 50.4067 43.652 50.4114 43.6595C50.6085 43.9721 50.9568 44.3842 51.5177 45.04C51.526 45.0498 51.5345 45.0596 51.5429 45.0695L51.577 45.1093C51.8412 45.418 52.0986 45.7188 52.2792 45.9956C52.4827 46.3075 52.668 46.7041 52.6433 47.1974C52.6187 47.689 52.3969 48.0639 52.1637 48.354C51.9576 48.6106 51.6732 48.8824 51.3822 49.1605L51.3444 49.1967L49.9207 50.5582C49.6533 50.814 49.3897 51.0662 49.1425 51.2493C48.8618 51.4573 48.5057 51.6519 48.0474 51.6747C47.5891 51.6974 47.2155 51.539 46.9155 51.3598C46.6514 51.2021 46.3641 50.9772 46.0728 50.7491L45.6531 50.4207C44.9973 49.9076 44.5945 49.5958 44.292 49.4239C44.2864 49.4207 44.281 49.4177 44.2757 49.4147C44.2742 49.4206 44.2726 49.4266 44.271 49.4328C44.1845 49.7698 44.1289 50.2762 44.0423 51.1043L44.01 51.4132C43.9701 51.7954 43.9309 52.1708 43.858 52.4794C43.7752 52.8294 43.6229 53.2198 43.271 53.5368C42.9191 53.8538 42.515 53.9647 42.1584 54.0105C41.8438 54.051 41.4663 54.0509 41.0821 54.0509H38.9178C38.5335 54.0509 38.1561 54.051 37.8415 54.0105C37.4848 53.9647 37.0807 53.8538 36.7288 53.5368C36.3769 53.2198 36.2246 52.8294 36.1419 52.4794C36.069 52.1708 36.0298 51.7954 35.9899 51.4132L35.9577 51.1048C35.8711 50.2767 35.8154 49.7703 35.7289 49.4333C35.7273 49.4271 35.7258 49.4211 35.7242 49.4153C35.7189 49.4182 35.7135 49.4213 35.7079 49.4244C35.4055 49.5963 35.0026 49.9082 34.3469 50.4212L33.9271 50.7497C33.6357 50.9778 33.3484 51.2027 33.0843 51.3604C32.7843 51.5396 32.4107 51.698 31.9524 51.6753C31.4941 51.6525 31.1381 51.4579 30.8573 51.2499C30.6101 51.0668 30.3465 50.8146 30.0791 50.5588L28.6176 49.1612C28.3267 48.883 28.0423 48.6112 27.8361 48.3546C27.6029 48.0645 27.3811 47.6896 27.3565 47.198C27.3318 46.7047 27.5172 46.3081 27.7207 45.9962C27.9013 45.7193 28.1587 45.4185 28.423 45.1097L28.4571 45.0699C29.0329 44.3969 29.3887 43.977 29.5888 43.6596C29.5936 43.6521 29.5981 43.6447 29.6025 43.6376C29.5961 43.636 29.5894 43.6343 29.5826 43.6326C29.2229 43.544 28.6821 43.4896 27.8081 43.406L27.5477 43.3811C27.5308 43.3795 27.5139 43.3779 27.497 43.3763C27.1113 43.3395 26.7326 43.3033 26.4213 43.2325C26.0684 43.1522 25.6741 43.0018 25.3533 42.6489C25.0324 42.2959 24.9203 41.8891 24.874 41.5302C24.8331 41.2135 24.8332 40.8331 24.8333 40.4456C24.8333 40.4287 24.8333 40.4117 24.8333 40.3947V38.6113C24.8333 38.5944 24.8333 38.5774 24.8333 38.5604C24.8332 38.1729 24.8331 37.7926 24.874 37.4759C24.9203 37.117 25.0324 36.7101 25.3533 36.3572C25.6741 36.0042 26.0684 35.8539 26.4213 35.7736C26.7326 35.7027 27.1112 35.6666 27.497 35.6298C27.5139 35.6282 27.5308 35.6266 27.5477 35.625L27.8086 35.6C28.6826 35.5164 29.2235 35.462 29.5832 35.3734C29.59 35.3717 29.5966 35.37 29.603 35.3684C29.5986 35.3612 29.5941 35.3539 29.5893 35.3463C29.3906 35.0312 29.0384 34.6151 28.47 33.9506C28.4658 33.9456 28.4615 33.9407 28.4573 33.9357C28.4459 33.9225 28.4346 33.9092 28.4232 33.896C28.1589 33.5871 27.9014 33.2863 27.7208 33.0093C27.5173 32.6974 27.3319 32.3008 27.3565 31.8075C27.3811 31.3159 27.6029 30.9409 27.8361 30.6508C28.0423 30.3943 28.3267 30.1224 28.6177 29.8443C28.6303 29.8322 28.6429 29.8202 28.6555 29.8081L30.0437 28.4806C30.0555 28.4693 30.0674 28.4579 30.0792 28.4466C30.3465 28.1908 30.6102 27.9386 30.8574 27.7555C31.1381 27.5476 31.4942 27.3529 31.9525 27.3302C32.4108 27.3074 32.7844 27.4659 33.0844 27.645C33.3485 27.8028 33.6358 28.0277 33.9271 28.2557C33.94 28.2658 33.9529 28.2759 33.9658 28.286L34.3469 28.5842C34.348 28.585 34.349 28.5858 34.35 28.5867C35.004 29.0983 35.406 29.4094 35.708 29.581C35.7136 29.5842 35.719 29.5872 35.7243 29.5902C35.7258 29.5843 35.7274 29.5783 35.729 29.5721C35.8155 29.2351 35.8711 28.7288 35.9577 27.9006L35.9846 27.6432C35.9864 27.6264 35.9881 27.6097 35.9899 27.5929C36.0298 27.2107 36.069 26.8353 36.1419 26.5266C36.2246 26.1767 36.3769 25.7863 36.7288 25.4693C37.0807 25.1523 37.4848 25.0414 37.8415 24.9955C38.1561 24.9551 38.5335 24.9551 38.9178 24.9552ZM50.1914 43.7074C50.187 43.7106 50.1843 43.7121 50.184 43.712C50.1838 43.7119 50.186 43.7103 50.1914 43.7074ZM53.1414 37.7253C53.1393 37.7248 53.1371 37.7242 53.1348 37.7237C52.9649 37.6851 52.7183 37.6595 52.2618 37.6159L51.9269 37.5838C51.1508 37.5097 50.4591 37.4436 49.9384 37.3153C49.4034 37.1834 48.7218 36.9093 48.4215 36.1659C48.1201 35.4197 48.4252 34.746 48.7192 34.2797C49.007 33.8232 49.4623 33.2912 49.9745 32.6926L50.023 32.636C50.3346 32.2718 50.5035 32.0713 50.604 31.9172C50.6057 31.9146 50.6073 31.912 50.6089 31.9096C50.6076 31.9079 50.6062 31.9061 50.6048 31.9044C50.4911 31.763 50.3057 31.5828 49.962 31.2541L48.5738 29.9266C48.2567 29.6233 48.0853 29.462 47.952 29.3633C47.9502 29.3619 47.9484 29.3606 47.9467 29.3593C47.9448 29.3604 47.9429 29.3616 47.941 29.3627C47.7986 29.4477 47.6121 29.5914 47.2665 29.8618L46.8855 30.1599L46.8276 30.2051C46.2485 30.6584 45.7276 31.0661 45.2802 31.3204C44.8137 31.5855 44.1592 31.8406 43.4488 31.5392C42.7384 31.2377 42.4672 30.5897 42.3338 30.07C42.2058 29.5716 42.1371 28.9137 42.0607 28.1822L42.0261 27.8512C41.9788 27.3987 41.9513 27.1547 41.9116 26.9867C41.9111 26.9844 41.9105 26.9822 41.91 26.9801C41.9078 26.9798 41.9056 26.9795 41.9033 26.9792C41.732 26.9571 41.4865 26.9552 41.0315 26.9552H38.9684C38.5134 26.9552 38.2678 26.9571 38.0966 26.9792C38.0943 26.9795 38.0921 26.9798 38.0899 26.9801C38.0893 26.9822 38.0888 26.9844 38.0883 26.9867C38.0486 27.1547 38.0211 27.3987 37.9738 27.8512L37.9469 28.1086C37.9443 28.1331 37.9418 28.1574 37.9392 28.1817C37.8628 28.9131 37.7941 29.5711 37.6662 30.0695C37.5327 30.5892 37.2615 31.2372 36.5511 31.5386C35.8407 31.8401 35.1862 31.5849 34.7198 31.3198C34.2724 31.0656 33.7514 30.6579 33.1723 30.2046C33.1531 30.1896 33.1338 30.1745 33.1145 30.1594L32.7334 29.8612C32.3878 29.5907 32.2012 29.4471 32.0588 29.3621C32.0569 29.3609 32.055 29.3598 32.0531 29.3587C32.0514 29.36 32.0496 29.3613 32.0478 29.3626C31.9146 29.4613 31.7431 29.6227 31.426 29.926L30.0378 31.2535C29.6942 31.5822 29.5087 31.7624 29.395 31.9038C29.3936 31.9055 29.3922 31.9072 29.3909 31.9089C29.3925 31.9114 29.3942 31.914 29.3959 31.9166C29.4955 32.0694 29.6624 32.2678 29.9688 32.626C29.9715 32.6292 29.9743 32.6324 29.977 32.6355C29.9932 32.6545 30.0094 32.6734 30.0255 32.6922C30.5378 33.2909 30.9931 33.823 31.281 34.2795C31.5751 34.7458 31.8803 35.4196 31.5788 36.1658C31.2786 36.9093 30.5969 37.1833 30.0619 37.3152C29.5412 37.4436 28.8495 37.5097 28.0735 37.5838C28.0487 37.5862 28.0239 37.5885 27.999 37.5909L27.7381 37.6159C27.2815 37.6595 27.035 37.6851 26.8651 37.7237C26.8628 37.7242 26.8606 37.7248 26.8584 37.7253C26.8581 37.7275 26.8578 37.7297 26.8575 37.732C26.8352 37.9048 26.8333 38.1527 26.8333 38.6113V40.3947C26.8333 40.8534 26.8352 41.1012 26.8575 41.274C26.8578 41.2763 26.8581 41.2786 26.8584 41.2808C26.8606 41.2813 26.8628 41.2818 26.8651 41.2823C27.035 41.321 27.2815 41.3465 27.7381 41.3902L28.0729 41.4222C28.849 41.4963 29.5406 41.5624 30.0613 41.6908C30.5964 41.8227 31.278 42.0967 31.5783 42.8402C31.8797 43.5864 31.5746 44.2601 31.2806 44.7264C30.9927 45.1828 30.5375 45.7148 30.0252 46.3134L29.9768 46.3701C29.6652 46.7343 29.4963 46.9347 29.3958 47.0889C29.3941 47.0915 29.3924 47.094 29.3908 47.0965C29.3922 47.0982 29.3935 47.0999 29.3949 47.1017C29.5086 47.2431 29.6941 47.4233 30.0378 47.7519L31.4259 49.0795C31.743 49.3827 31.9145 49.5441 32.0477 49.6428C32.0496 49.6442 32.0513 49.6455 32.0531 49.6467C32.0549 49.6456 32.0568 49.6445 32.0587 49.6434C32.2011 49.5583 32.3877 49.4147 32.7333 49.1443L33.1722 48.8008C33.7514 48.3476 34.2723 47.9399 34.7197 47.6856C35.1862 47.4205 35.8407 47.1654 36.551 47.4668C37.2614 47.7683 37.5327 48.4163 37.6661 48.936C37.7941 49.4344 37.8628 50.0923 37.9392 50.8238L37.9738 51.1548C38.0211 51.6073 38.0486 51.8514 38.0883 52.0194C38.0888 52.0217 38.0893 52.0239 38.0899 52.026C38.0921 52.0263 38.0943 52.0266 38.0966 52.0269C38.2678 52.0489 38.5134 52.0508 38.9684 52.0508H41.0315C41.4865 52.0508 41.732 52.0489 41.9033 52.0269C41.9056 52.0266 41.9078 52.0263 41.91 52.026C41.9105 52.0239 41.9111 52.0217 41.9116 52.0194C41.9513 51.8514 41.9788 51.6073 42.0261 51.1548L42.0607 50.8232C42.1371 50.0918 42.2059 49.4339 42.3338 48.9354C42.4673 48.4158 42.7385 47.7678 43.4489 47.4663C44.1593 47.1648 44.8138 47.42 45.2802 47.6851C45.7276 47.9394 46.2485 48.347 46.8277 48.8003L47.2665 49.1437C47.6121 49.4141 47.7987 49.5577 47.9411 49.6427C47.943 49.6439 47.9449 49.645 47.9468 49.6461C47.9485 49.6448 47.9503 49.6435 47.9521 49.6422C48.0853 49.5435 48.2568 49.3821 48.5739 49.0788L49.9621 47.7513C50.3057 47.4227 50.4912 47.2425 50.6049 47.1011C50.6063 47.0993 50.6077 47.0976 50.609 47.0959C50.6074 47.0934 50.6058 47.0909 50.6041 47.0883C50.5036 46.9342 50.3348 46.7338 50.0232 46.3697L49.9747 46.313C49.4626 45.7145 49.0074 45.1826 48.7196 44.7262C48.4256 44.2599 48.1206 43.5863 48.422 42.8402C48.7223 42.0967 49.404 41.8226 49.939 41.6907C50.4597 41.5624 51.1513 41.4963 51.9274 41.4222L52.2618 41.3902C52.7183 41.3465 52.9649 41.321 53.1348 41.2823C53.1371 41.2818 53.1393 41.2813 53.1414 41.2808C53.1417 41.2786 53.142 41.2763 53.1423 41.274C53.1646 41.1012 53.1666 40.8534 53.1666 40.3947V38.6113C53.1666 38.1527 53.1646 37.9048 53.1423 37.732C53.142 37.7297 53.1417 37.7275 53.1414 37.7253ZM39.9999 35.0839C37.38 35.0839 35.3333 37.104 35.3333 39.503C35.3333 41.902 37.38 43.9222 39.9999 43.9222C42.6198 43.9222 44.6666 41.902 44.6666 39.503C44.6666 37.104 42.6198 35.0839 39.9999 35.0839ZM33.3333 39.503C33.3333 35.9162 36.3606 33.0839 39.9999 33.0839C43.6393 33.0839 46.6666 35.9162 46.6666 39.503C46.6666 43.0898 43.6393 45.9222 39.9999 45.9222C36.3606 45.9222 33.3333 43.0898 33.3333 39.503Z" fill="white"/>
</svg>
