<svg width="277" height="270" viewBox="0 0 277 270" fill="none" xmlns="http://www.w3.org/2000/svg">
<g filter="url(#filter0_d_0_123)">
<rect x="36" y="24" width="181" height="173.093" rx="86.5466" fill="#4269E1" shape-rendering="crispEdges"/>
<g clip-path="url(#clip0_0_123)">
<path d="M119.123 70.3015C118.516 70.3015 117.934 70.5427 117.504 70.9721C117.075 71.4014 116.834 71.9837 116.834 72.5909C116.834 73.1981 117.075 73.7804 117.504 74.2097C117.934 74.6391 118.516 74.8803 119.123 74.8803H121.413V79.7795C113.393 80.9387 106.109 85.0921 101.028 91.4042C95.9466 97.7163 93.4443 105.719 94.0245 113.801C94.6047 121.883 98.2244 129.446 104.155 134.968C110.086 140.489 117.888 143.56 125.991 143.562C132.136 143.561 138.15 141.795 143.319 138.473C148.488 135.151 152.593 130.413 155.145 124.824C157.697 119.235 158.589 113.03 157.715 106.949C156.841 100.867 154.236 95.1648 150.213 90.5213C150.233 90.5033 150.253 90.485 150.272 90.4663L151.893 88.8455L153.51 90.4663C153.721 90.685 153.973 90.8594 154.253 90.9794C154.532 91.0994 154.832 91.1625 155.136 91.1652C155.44 91.1678 155.742 91.1099 156.023 90.9948C156.305 90.8797 156.56 90.7097 156.775 90.4947C156.99 90.2797 157.16 90.0241 157.275 89.7428C157.39 89.4614 157.448 89.16 157.446 88.856C157.443 88.552 157.38 88.2516 157.26 87.9723C157.14 87.693 156.965 87.4403 156.747 87.2292L150.272 80.7502C150.061 80.5316 149.809 80.3572 149.529 80.2372C149.25 80.1172 148.95 80.054 148.646 80.0514C148.342 80.0487 148.04 80.1067 147.759 80.2218C147.477 80.3369 147.222 80.5069 147.007 80.7218C146.792 80.9368 146.622 81.1924 146.507 81.4738C146.392 81.7551 146.334 82.0566 146.336 82.3606C146.339 82.6646 146.402 82.965 146.522 83.2443C146.642 83.5236 146.817 83.7762 147.035 83.9874L148.656 85.6083L147.035 87.2292C147.017 87.2473 146.998 87.2656 146.98 87.2841C142.345 83.2583 136.647 80.6543 130.57 79.7841V74.8803H132.859C133.467 74.8803 134.049 74.6391 134.478 74.2097C134.908 73.7804 135.149 73.1981 135.149 72.5909C135.149 71.9837 134.908 71.4014 134.478 70.9721C134.049 70.5427 133.467 70.3015 132.859 70.3015H119.123ZM128.281 95.9425V111.51C128.281 112.117 128.039 112.7 127.61 113.129C127.181 113.558 126.598 113.8 125.991 113.8H109.966C109.358 113.8 108.776 113.558 108.347 113.129C107.917 112.7 107.676 112.117 107.676 111.51C107.676 110.903 107.917 110.321 108.347 109.891C108.776 109.462 109.358 109.221 109.966 109.221H123.702V95.9425C123.702 95.3353 123.943 94.753 124.372 94.3237C124.802 93.8943 125.384 93.6531 125.991 93.6531C126.598 93.6531 127.181 93.8943 127.61 94.3237C128.039 94.753 128.281 95.3353 128.281 95.9425V95.9425Z" fill="white"/>
<rect width="26.8274" height="30.3014" transform="translate(105.381 87.4788)" fill="white"/>
<path d="M112.336 110.791C112.336 107.983 112.944 105.485 114.159 103.298C115.374 101.084 117.061 99.3696 119.221 98.1546C121.408 96.9126 123.879 96.2916 126.633 96.2916C130.008 96.2916 132.897 97.1826 135.3 98.9646C137.703 100.747 139.309 103.177 140.119 106.255H132.505C131.938 105.067 131.128 104.162 130.075 103.541C129.049 102.92 127.875 102.61 126.552 102.61C124.419 102.61 122.691 103.352 121.368 104.837C120.045 106.322 119.383 108.307 119.383 110.791C119.383 113.275 120.045 115.259 121.368 116.744C122.691 118.229 124.419 118.972 126.552 118.972C127.875 118.972 129.049 118.661 130.075 118.04C131.128 117.419 131.938 116.515 132.505 115.327H140.119C139.309 118.405 137.703 120.835 135.3 122.617C132.897 124.372 130.008 125.249 126.633 125.249C123.879 125.249 121.408 124.642 119.221 123.427C117.061 122.185 115.374 120.47 114.159 118.283C112.944 116.096 112.336 113.599 112.336 110.791Z" fill="#4269E1"/>
</g>
<path d="M182.574 110.476C182.574 141.964 157.049 167.489 125.561 167.489C94.0738 167.489 68.5481 141.964 68.5481 110.476C68.5481 78.9887 94.0738 53.463 125.561 53.463C157.049 53.463 182.574 78.9887 182.574 110.476ZM78.4803 110.476C78.4803 136.478 99.5592 157.557 125.561 157.557C151.563 157.557 172.642 136.478 172.642 110.476C172.642 84.4741 151.563 63.3953 125.561 63.3953C99.5592 63.3953 78.4803 84.4741 78.4803 110.476Z" fill="white"/>
<path d="M199 110.547C199 151.14 166.093 184.047 125.5 184.047C84.9071 184.047 52 151.14 52 110.547C52 69.9537 84.9071 37.0466 125.5 37.0466C166.093 37.0466 199 69.9537 199 110.547ZM57.7411 110.547C57.7411 147.969 88.0778 178.305 125.5 178.305C162.922 178.305 193.259 147.969 193.259 110.547C193.259 73.1244 162.922 42.7878 125.5 42.7878C88.0778 42.7878 57.7411 73.1244 57.7411 110.547Z" fill="white"/>
</g>
<defs>
<filter id="filter0_d_0_123" x="0" y="0" width="277" height="269.093" filterUnits="userSpaceOnUse" color-interpolation-filters="sRGB">
<feFlood flood-opacity="0" result="BackgroundImageFix"/>
<feColorMatrix in="SourceAlpha" type="matrix" values="0 0 0 0 0 0 0 0 0 0 0 0 0 0 0 0 0 0 127 0" result="hardAlpha"/>
<feOffset dx="12" dy="24"/>
<feGaussianBlur stdDeviation="24"/>
<feComposite in2="hardAlpha" operator="out"/>
<feColorMatrix type="matrix" values="0 0 0 0 0.117647 0 0 0 0 0.12549 0 0 0 0 0.141176 0 0 0 0.1 0"/>
<feBlend mode="normal" in2="BackgroundImageFix" result="effect1_dropShadow_0_123"/>
<feBlend mode="normal" in="SourceGraphic" in2="effect1_dropShadow_0_123" result="shape"/>
</filter>
<clipPath id="clip0_0_123">
<rect width="73.26" height="73.26" fill="white" transform="translate(89.3613 70.3015)"/>
</clipPath>
</defs>
</svg>
